<?xml version="1.0" encoding="utf-8"?>
<!-- Generator: Adobe Illustrator 23.0.2, SVG Export Plug-In . SVG Version: 6.00 Build 0)  -->
<svg version="1.1" id="Ñëîé_1" xmlns="http://www.w3.org/2000/svg" xmlns:xlink="http://www.w3.org/1999/xlink" x="0px" y="0px"
	 viewBox="0 0 213.8 190" style="enable-background:new 0 0 213.8 190;" xml:space="preserve">
<g>
	<polygon style="fill:#0AF2A5;" points="22.2,59 118.3,114.5 213.8,59 117.7,3.5 	"/>
	<polygon style="fill:#0AF2A5;" points="118.3,165 40.7,120.2 22.2,131 118.3,186.5 213.8,131 195.3,120.3 	"/>
	<polygon style="fill:#0AF2A5;" points="118.3,129 40.7,84.2 22.2,95 118.3,150.5 213.8,95 195.3,84.3 	"/>
</g>
<g>
	<linearGradient id="SVGID_1_" gradientUnits="userSpaceOnUse" x1="0" y1="58.9957" x2="198.617" y2="58.9957">
		<stop  offset="0.1205" style="stop-color:#771FE4"/>
		<stop  offset="0.2687" style="stop-color:#5B1FD5"/>
		<stop  offset="1" style="stop-color:#4318B6"/>
	</linearGradient>
	<polygon style="fill:none;stroke:url(#SVGID_1_);stroke-width:7;stroke-linejoin:round;stroke-miterlimit:10;" points="3.5,59 
		99.6,114.5 195.1,59 99,3.5 	"/>
	<polygon style="fill:none;stroke:#511CC8;stroke-width:7;stroke-linejoin:round;stroke-miterlimit:10;" points="99.6,165 22,120.2 
		3.5,131 99.6,186.5 195.1,131 176.6,120.3 	"/>
	<polygon style="fill:none;stroke:#511CC8;stroke-width:7;stroke-linejoin:round;stroke-miterlimit:10;" points="99.6,129 22,84.2 
		3.5,95 99.6,150.5 195.1,95 176.6,84.3 	"/>
</g>
</svg>
